<svg width="41" height="61" viewBox="0 0 41 61" fill="none" xmlns="http://www.w3.org/2000/svg">
<path d="M20.5 13.9375C17.4792 13.9375 14.6927 14.6797 12.1406 16.1641C9.58854 17.6484 7.57031 19.6667 6.08594 22.2188C4.60156 24.7708 3.85938 27.5573 3.85938 30.5781C3.85938 33.3385 4.47135 35.9036 5.69531 38.2734C6.91927 40.6432 8.59896 42.6094 10.7344 44.1719C12.8698 45.7344 15.2656 46.6979 17.9219 47.0625V35.4219H13.7031V30.5781H17.9219V26.9062C17.9219 24.875 18.4818 23.2865 19.6016 22.1406C20.7214 20.9948 22.2448 20.4219 24.1719 20.4219C25.4219 20.4219 26.6719 20.526 27.9219 20.7344V24.875H25.8125C24.875 24.875 24.1719 25.1354 23.7031 25.6562C23.2865 26.125 23.0781 26.724 23.0781 27.4531V30.5781H27.7656L26.9844 35.4219H23.0781V47.0625C25.7865 46.6458 28.2083 45.6562 30.3438 44.0938C32.4792 42.5312 34.1458 40.5651 35.3438 38.1953C36.5417 35.8255 37.1406 33.2865 37.1406 30.5781C37.1406 27.5573 36.3984 24.7708 34.9141 22.2188C33.4297 19.6667 31.4115 17.6484 28.8594 16.1641C26.3073 14.6797 23.5208 13.9375 20.5 13.9375Z" fill="#EBB73F"/>
</svg>
