<svg width="41" height="61" viewBox="0 0 41 61" fill="none" xmlns="http://www.w3.org/2000/svg">
<path d="M11.5156 28.4688C12.7135 30.8125 14.263 32.9349 16.1641 34.8359C18.0651 36.737 20.1875 38.2865 22.5312 39.4844L26.2031 35.8125C26.6719 35.3438 27.2448 35.2135 27.9219 35.4219C29.7969 36.0469 31.776 36.3594 33.8594 36.3594C34.3281 36.3594 34.7188 36.5156 35.0312 36.8281C35.3438 37.1406 35.5 37.5312 35.5 38V43.8594C35.5 44.3281 35.3438 44.7188 35.0312 45.0312C34.7188 45.3438 34.3281 45.5 33.8594 45.5C30.1094 45.5 26.4896 44.7839 23 43.3516C19.5104 41.9193 16.4375 39.875 13.7812 37.2188C11.125 34.5625 9.08073 31.4896 7.64844 28C6.21615 24.5104 5.5 20.8906 5.5 17.1406C5.5 16.6719 5.65625 16.2812 5.96875 15.9688C6.28125 15.6562 6.67188 15.5 7.14062 15.5H13C13.4688 15.5 13.8594 15.6562 14.1719 15.9688C14.4844 16.2812 14.6406 16.6719 14.6406 17.1406C14.6406 19.224 14.9531 21.2031 15.5781 23.0781C15.7865 23.7552 15.6562 24.3281 15.1875 24.7969L11.5156 28.4688Z" fill="#EBB73F"/>
</svg>
