<svg width="35" height="35" viewBox="0 0 35 35" fill="none" xmlns="http://www.w3.org/2000/svg">
<rect x="0.5" y="0.5" width="34" height="34" rx="17" stroke="#EBB73F"/>
<path d="M23 21.58C22.24 21.58 21.56 21.88 21.04 22.35L13.91 18.2C13.96 17.97 14 17.74 14 17.5C14 17.26 13.96 17.03 13.91 16.8L20.96 12.69C21.5 13.19 22.21 13.5 23 13.5C24.66 13.5 26 12.16 26 10.5C26 8.84 24.66 7.5 23 7.5C21.34 7.5 20 8.84 20 10.5C20 10.74 20.04 10.97 20.09 11.2L13.04 15.31C12.5 14.81 11.79 14.5 11 14.5C9.34 14.5 8 15.84 8 17.5C8 19.16 9.34 20.5 11 20.5C11.79 20.5 12.5 20.19 13.04 19.69L20.16 23.85C20.11 24.06 20.08 24.28 20.08 24.5C20.08 26.11 21.39 27.42 23 27.42C24.61 27.42 25.92 26.11 25.92 24.5C25.92 22.89 24.61 21.58 23 21.58ZM23 9.5C23.55 9.5 24 9.95 24 10.5C24 11.05 23.55 11.5 23 11.5C22.45 11.5 22 11.05 22 10.5C22 9.95 22.45 9.5 23 9.5ZM11 18.5C10.45 18.5 10 18.05 10 17.5C10 16.95 10.45 16.5 11 16.5C11.55 16.5 12 16.95 12 17.5C12 18.05 11.55 18.5 11 18.5ZM23 25.52C22.45 25.52 22 25.07 22 24.52C22 23.97 22.45 23.52 23 23.52C23.55 23.52 24 23.97 24 24.52C24 25.07 23.55 25.52 23 25.52Z" fill="#EBB73F"/>
</svg>
