<svg width="35" height="35" viewBox="0 0 35 35" fill="none" xmlns="http://www.w3.org/2000/svg">
<path d="M10.4688 0.859375H24.5312C26.25 0.859375 27.8516 1.28906 29.3359 2.14844C30.8203 3.00781 31.9922 4.17969 32.8516 5.66406C33.7109 7.14844 34.1406 8.75 34.1406 10.4688V24.5312C34.1406 26.25 33.7109 27.8516 32.8516 29.3359C31.9922 30.8203 30.8203 31.9922 29.3359 32.8516C27.8516 33.7109 26.25 34.1406 24.5312 34.1406H10.4688C8.75 34.1406 7.14844 33.7109 5.66406 32.8516C4.17969 31.9922 3.00781 30.8203 2.14844 29.3359C1.28906 27.8516 0.859375 26.25 0.859375 24.5312V10.4688C0.859375 8.75 1.28906 7.14844 2.14844 5.66406C3.00781 4.17969 4.17969 3.00781 5.66406 2.14844C7.14844 1.28906 8.75 0.859375 10.4688 0.859375ZM10.1562 4.14062C8.48958 4.14062 7.07031 4.72656 5.89844 5.89844C4.72656 7.07031 4.14062 8.48958 4.14062 10.1562V24.8438C4.14062 26.5104 4.72656 27.9297 5.89844 29.1016C7.07031 30.2734 8.48958 30.8594 10.1562 30.8594H24.8438C26.5104 30.8594 27.9297 30.2734 29.1016 29.1016C30.2734 27.9297 30.8594 26.5104 30.8594 24.8438V10.1562C30.8594 8.48958 30.2734 7.07031 29.1016 5.89844C27.9297 4.72656 26.5104 4.14062 24.8438 4.14062H10.1562ZM26.25 6.64062C26.8229 6.64062 27.3177 6.84896 27.7344 7.26562C28.151 7.68229 28.3594 8.17708 28.3594 8.75C28.3594 9.32292 28.151 9.81771 27.7344 10.2344C27.3177 10.651 26.8229 10.8594 26.25 10.8594C25.6771 10.8594 25.1823 10.651 24.7656 10.2344C24.349 9.81771 24.1406 9.32292 24.1406 8.75C24.1406 8.17708 24.349 7.68229 24.7656 7.26562C25.1823 6.84896 25.6771 6.64062 26.25 6.64062ZM17.5 9.14062C19.0104 9.14062 20.4036 9.51823 21.6797 10.2734C22.9557 11.0286 23.9714 12.0443 24.7266 13.3203C25.4818 14.5964 25.8594 15.9896 25.8594 17.5C25.8594 19.0104 25.4818 20.4036 24.7266 21.6797C23.9714 22.9557 22.9557 23.9714 21.6797 24.7266C20.4036 25.4818 19.0104 25.8594 17.5 25.8594C15.9896 25.8594 14.5964 25.4818 13.3203 24.7266C12.0443 23.9714 11.0286 22.9557 10.2734 21.6797C9.51823 20.4036 9.14062 19.0104 9.14062 17.5C9.14062 15.9896 9.51823 14.5964 10.2734 13.3203C11.0286 12.0443 12.0443 11.0286 13.3203 10.2734C14.5964 9.51823 15.9896 9.14062 17.5 9.14062ZM17.5 12.5C16.0938 12.5 14.9089 12.9818 13.9453 13.9453C12.9818 14.9089 12.5 16.0938 12.5 17.5C12.5 18.9062 12.9818 20.0911 13.9453 21.0547C14.9089 22.0182 16.0938 22.5 17.5 22.5C18.9062 22.5 20.0911 22.0182 21.0547 21.0547C22.0182 20.0911 22.5 18.9062 22.5 17.5C22.5 16.0938 22.0182 14.9089 21.0547 13.9453C20.0911 12.9818 18.9062 12.5 17.5 12.5Z" fill="#EBB73F"/>
</svg>
